<?xml version="1.0" encoding="utf-8"?>
<!-- Generator: Adobe Illustrator 24.0.1, SVG Export Plug-In . SVG Version: 6.00 Build 0)  -->
<svg version="1.1" id="Camada_1" xmlns="http://www.w3.org/2000/svg" xmlns:xlink="http://www.w3.org/1999/xlink" x="0px" y="0px"
	 viewBox="0 0 43 66" style="enable-background:new 0 0 43 66;" xml:space="preserve">
<style type="text/css">
	.st0{fill:#E3C762;}
	.st1{display:none;}
	.st2{display:inline;fill:#E3C762;}
	.st3{display:inline;fill:#FFFFFF;}
</style>
<g transform="translate(0, 0)">
	<g transform="translate(0, 0) rotate(0)">
		<g vector-effect="non-scaling-stroke">
			<path id="path-1576010526584285" vector-effect="non-scaling-stroke" class="st0" d="M0,26.9C0,12.2,11.9,0,21.5,0
				S43,12.2,43,26.9S21.5,66,21.5,66S0,41.6,0,26.9z M13.5,20.8c0,3.7,3.6,6.8,8,6.8s8-3,8-6.8s-3.6-6.8-8-6.8S13.5,17,13.5,20.8z"
				/>
		</g>
		<path vector-effect="non-scaling-stroke" class="st0" d="M0,26.9C0,12.2,11.9,0,21.5,0S43,12.2,43,26.9S21.5,66,21.5,66
			S0,41.6,0,26.9z M13.5,20.8c0,3.7,3.6,6.8,8,6.8s8-3,8-6.8s-3.6-6.8-8-6.8S13.5,17,13.5,20.8z"/>
	</g>
	<g>
		<g transform="translate(-711.8888888888894, -14334.222222222226)" class="st1">
			<path vector-effect="non-scaling-stroke" class="st2" d="M733.4,14400.2c0,0,21.5-24.4,21.5-39.1c0-14.7-11.9-26.9-21.5-26.9
				c-9.6,0-21.5,12.2-21.5,26.9C711.9,14375.8,733.4,14400.2,733.4,14400.2z"/>
		</g>
	</g>
	<g>
		<g transform="translate(0, 0)" class="st1">
			<path vector-effect="non-scaling-stroke" class="st3" d="M8,0c4.4,0,8,3,8,6.8s-3.6,6.8-8,6.8s-8-3-8-6.8S3.6,0,8,0z"/>
		</g>
	</g>
</g>
</svg>
