<svg version="1.2" xmlns="http://www.w3.org/2000/svg" xmlns:xlink="http://www.w3.org/1999/xlink" overflow="visible" preserveAspectRatio="none" viewBox="0 0 843.8900146484375 597.280029296875" id="Layer_1_1573665462920" width="704" height="498"><g transform="translate(1, 1)"><path d="M78.34,280.93V193.18h1.59c19.82,0,39.65-.21,59.47.11a25.76,25.76,0,0,1,18.77,7.89,18.12,18.12,0,0,1,4.28,8.5c1,4,.26,7.94.55,11.9-1,2.4-.9,5.17-2.85,7.24a15.14,15.14,0,0,0-1.81,3.29c1.68,2.18,3.6,4.45,5.25,6.9a21.88,21.88,0,0,1,3.26,8,43.22,43.22,0,0,1,.41,11.28,22.82,22.82,0,0,1-3.43,10.37c-2.28,3.79-5.72,6.44-9.47,8.58a31.35,31.35,0,0,1-7.32,2.59,25.73,25.73,0,0,1-6.66,1.16c-20.44.09-40.89.05-61.33.05A5.72,5.72,0,0,1,78.34,280.93Zm14.93-14.84h5.58c6.84,0,13.69.12,20.53,0s13.52.55,20.28-.49a42.55,42.55,0,0,0,6.6-1.42,8.18,8.18,0,0,0,5.21-5.05c.66-1.9,1.41-4.08.84-6.13a22.27,22.27,0,0,1-.54-2.87c-.36-2.75-3.66-6.65-6.25-7-1.57-.21-3-.87-4.71-.76s-3.35-.52-5-.53c-13.27-.05-26.54,0-39.81,0h-2.7Zm0-39.26c13.36,0,26.43,0,39.5,0a35.35,35.35,0,0,0,7.2-.67,15,15,0,0,0,5-2.21,5.21,5.21,0,0,0,2.34-3c.23-1.73,1.68-3.56.15-5.36-.15-3.82-3.35-6.06-6.85-6.68a38.71,38.71,0,0,0-7.19-.8c-12.35.12-24.7,0-37,0H93.26Z" vector-effect="non-scaling-stroke" style="fill: rgb(255, 255, 255);"/><path d="M256.44,268.69c2.41-4.37,4.82-8.77,7.32-13.31,2.06,1.12,4.24,2.16,6.28,3.43a52.62,52.62,0,0,0,12.77,6,73.87,73.87,0,0,0,11.72,2.62c2.64.34,5.34,0,7.83.61s4.63.36,6.94.5c3.26.2,6.49-.48,9.69-.78a23.74,23.74,0,0,0,10.27-2.92c2.33-1.4,4.62-2.8,5.32-5.59.48-1.91,1.89-3.79.51-5.92-.24-.37,0-1-.1-1.51a6.66,6.66,0,0,0-4.42-5.65c-1.7-.68-3.62-.77-5.37-1.33-2.29-.73-4.67-.22-6.91-.66-5.42-1.07-10.89,0-16.25-.65-4.19-.53-8.39-.13-12.52-.62a49.47,49.47,0,0,1-11.73-2.44c-5.09-1.91-9.6-4.78-12.45-9.57a27,27,0,0,1-2-5.71,22.72,22.72,0,0,1-.56-9.38,21.74,21.74,0,0,1,5.27-12.76c.8-.88,1.31-2.14,2.26-2.74s1.68-1.42,2.57-2a34.13,34.13,0,0,1,8.42-4.5c1.46-.48,3.16-.54,4.41-1.34s3.07.08,4.21-1.16c2.15.41,4.16-.64,6.28-.63,4.67,0,9.35.07,14,0a17.87,17.87,0,0,1,3.48.68c1.16.2,2.3-.25,3.55.48s2.67.3,4.06.63c2.08.5,4.13,1.11,6.18,1.69s4.25.68,5.95,2.17c4.45.79,8.07,3.59,12.26,5,.44.15.78.6,1.33,1-1.66,4.66-4.93,8.52-6.6,13.3-.52,0-1.13.09-1.47-.15-4.68-3.39-10-5.36-15.42-7.15a52.27,52.27,0,0,0-7.8-1.55c-2.22-.37-4.51-.08-6.59-.63a20.81,20.81,0,0,0-7.55-.44c-5,.51-10.05.67-14.87,2.39a14.9,14.9,0,0,0-6.45,4.66c-.63.76-.61,2-.88,3.06s-.74,1.89-.11,3a8.54,8.54,0,0,1,.35,2.81,8,8,0,0,0,6.67,4.52c1.29,1.1,3,.17,4.32.86,1.49.78,3,.38,4.51.34,4-.1,7.88,1,11.9.72s8.09-.1,12.14,0a30.28,30.28,0,0,1,3.49.59c1.17.15,2.31,0,3.52.54s2.6-.24,3.75.71c3.39.11,6.34,1.66,9.43,2.8a18.56,18.56,0,0,1,7.74,5.33,19,19,0,0,1,4.2,8.87,38.64,38.64,0,0,1,.4,10.66,24.26,24.26,0,0,1-5.31,13.67c-3.91,4.81-9.21,7.3-14.68,9.62-2.4,0-4.49,1.25-6.88,1.55-2.2.27-4.47.52-6.69,1s-4.75.11-7.14.11h-7.17a4.28,4.28,0,0,0-.62,0c-3.48.42-6.94-.29-10.32-.76a72.15,72.15,0,0,1-11.15-2.3c-3.51-1.06-7-2.2-10.39-3.51a57.76,57.76,0,0,1-13.94-7.73c-.13-.11-.43,0-.6-.05S256.59,268.89,256.44,268.69Z" vector-effect="non-scaling-stroke" style="fill: rgb(255, 255, 255);"/><path d="M457.75,193.26h15v3.14c0,17,0,34,0,51.08a42.67,42.67,0,0,1-.66,7.83c-.47,2.44-1.53,4.76-2.23,7.16a25.39,25.39,0,0,1-7.11,11.35A32.06,32.06,0,0,1,450.13,281a69.18,69.18,0,0,1-9.48,2,71.63,71.63,0,0,1-9.11.45,69.76,69.76,0,0,1-9,0,62.47,62.47,0,0,1-10.12-1.83,29.41,29.41,0,0,1-9-3.81c-2.55-1.75-5.26-3.33-7.19-6.1-1.67-2.42-3.67-4.63-4.69-7.43a52.16,52.16,0,0,1-3.07-11.22,93.15,93.15,0,0,1-.48-9.42c-.07-3.11,0-6.23,0-9.34V193.52a1.37,1.37,0,0,1,.2-.22.45.45,0,0,1,.26-.12h14.49v3.13c0,15.88-.12,31.77.09,47.65a37.22,37.22,0,0,0,1.79,12.31,14.2,14.2,0,0,0,4.83,7,24.87,24.87,0,0,0,9.87,4.12c1.93.44,3.91,0,5.66.62,2.44.81,4.85.58,7.24.47a61.49,61.49,0,0,0,10.67-1.3,16.48,16.48,0,0,0,4.85-1.77,22.64,22.64,0,0,0,4.35-3,14.69,14.69,0,0,0,4.17-7.89c.37-2.15,1.15-4.32.7-6.58,1.12-3.39.5-6.88.6-10.33s0-7.06,0-10.59Z" vector-effect="non-scaling-stroke" style="fill: rgb(255, 255, 255);"/><path d="M541.88,280.93V208.24H508.05a2.23,2.23,0,0,1-.34-.32.49.49,0,0,1-.1-.26c0-4.76,0-9.52,0-14.38h82.66s0,0,.11.1a.57.57,0,0,1,.11.27V208H557.23a3.24,3.24,0,0,0-.3.32.56.56,0,0,0-.1.27v72.31Z" vector-effect="non-scaling-stroke" style="fill: rgb(255, 255, 255);"/><path d="M645.42,208.15H611.16V193.48c2.73-.48,69.63-.67,82.65-.21v14.66c0-.05,0,0-.1.1a.49.49,0,0,1-.26.1H660.27V280.7a1.1,1.1,0,0,1-.2.23.5.5,0,0,1-.26.11H645.42Z" vector-effect="non-scaling-stroke" style="fill: rgb(255, 255, 255);"/><path d="M221.47,281H206.73V193.24h14.74Z" vector-effect="non-scaling-stroke" style="fill: rgb(255, 255, 255);"/><path d="M744.91,281H730.18V193.24h14.73Z" vector-effect="non-scaling-stroke" style="fill: rgb(255, 255, 255);"/><path d="M566.4,354.58l3.91-2.5c.39.52.8,1.1,1.31,1.8-.4.49-.88,1.67-1.6,1.84-1.24.29-.74,1.52-1.58,2-.64.41-.7,1.72-1,2.67l.87.93h1.87c6.76-2.11,12.11-6,17.92-9.07l1.08,2.08a17.44,17.44,0,0,1-2.33,2,73.51,73.51,0,0,1-7.54,4.34c-3.06,1.41-6,3.26-9.6,3.19-.22,0-.46.36-.6.49l-3.46-1.31c-.28-1.06-.61-2.27-1-3.69a26.42,26.42,0,0,0-2.71,1.59c-3.29,2.47-7.1,3.88-10.92,5.23a5.23,5.23,0,0,1-4.61-.63,5.79,5.79,0,0,1,0-5.91c-4.52,1.67-8.71,3.57-13.1,4.73s-8.63,2.79-12.9,3.79c-1.5,3.08-2.8,6-5.16,8.37-1.29,1.27-2.29,2.82-3.56,4.11-2.8,2.82-6.42,4.4-9.89,6.18-1.9-.33-3.77,1.92-5.69.08-3.61-1.2-4.95-2.21-4.67-6,0-.31,0-.62,0-.93.42-.76.81-1.54,1.25-2.28a4.77,4.77,0,0,1,1-1.44,38.9,38.9,0,0,1,8.83-5c4.29-1.73,8.71-3.05,13.09-4.49.82-.27,1.68-.45,2.67-.71,2.56-5.39,3.29-11.46,5.58-17.56-1.53,1-2.68,1.75-3.76,2.56a92.2,92.2,0,0,1-12.64,8.55c-2.76,1.46-5.54,2.67-8.39,3.85a10.64,10.64,0,0,1-2.33.4,8.74,8.74,0,0,0-1.26.47l-3.41-1.27c-.29-1.1-.61-2.31-1-3.67a23.3,23.3,0,0,0-2.52,1.38,36.09,36.09,0,0,1-10.38,5.05,6.61,6.61,0,0,1-5.25-.22c-1.25-1.24-.75-3.05-.91-4.89a32.23,32.23,0,0,0-4.1,1.41,51.75,51.75,0,0,1-10,3.72,9.09,9.09,0,0,1-1.35.48,26.77,26.77,0,0,0-3.82.53,5.05,5.05,0,0,1-5.36-1.86,6.7,6.7,0,0,1-.68-2.15,17.77,17.77,0,0,1,2.2-5.52,19,19,0,0,1,4.46-4.28,21.39,21.39,0,0,1,5.3-3c2.1-.76,4.18-.4,6.23-.59l.95,1.95a12,12,0,0,1-5.59,5.56,1.57,1.57,0,0,1-1.3-1.91l3.3-2.83c-2.3.09-4.39,1-7.93,3.49-1.69,1.17-3.38,3.71-4.73,7.11l.85.9c4.11.42,7.9-.61,11.79-2.09,5-1.9,9.57-4.47,14.41-6.57a9.92,9.92,0,0,0,3.22-1.95c1.75-1.79,4.21-1.43,6.2-2.38,2.63.58,5.49.74,6.82,3.69l3.84-2.43,1.29,1.81c-.34.45-.83,1.7-1.49,1.8-1.34.2-.73,1.52-1.61,2-.64.36-.73,1.69-1.08,2.67l.85.94h2.43c1.76-.78,3.3-1.58,4.93-2.16,3.36-1.18,6-3.55,9-5.34,2.77-1.67,5.33-3.67,8-5.46s5.38-3.37,7.52-5.61h1.3c.09.21.24.39.23.56a6.53,6.53,0,0,1-.21,1.78,103.13,103.13,0,0,0-3.57,12.55,40.31,40.31,0,0,1-2.13,5.65,11.7,11.7,0,0,0-.36,1.71c3.38-1,6.58-2,9.74-3a125.62,125.62,0,0,0,12.73-4.62c1.22-.55,2.59-.78,3.79-1.37a27.9,27.9,0,0,0,5.55-3.12c1.74-1.39,3.84-1.32,5.73-2a4.74,4.74,0,0,1,3.7.61C564.33,352.37,566.26,352.6,566.4,354.58Zm-50.14,15.14c-4.41,1.47-8.92,2.34-13,4.46-4.76,2.45-6.65,3-8.68,5.7v2.84l1.54,1.85c1.42-.39,2.77.08,4.23-.48a28.55,28.55,0,0,0,6.86-3.73A31.52,31.52,0,0,0,516.26,369.72Zm-32.79-15.64c-1.19,1.47-3,2.07-4.43,3-1.73,1.08-2.16,3.08-3.75,3.91v3a28.1,28.1,0,0,0,8.55-3.41,36.46,36.46,0,0,0,7.47-5c-.88-.64-1.57-1.53-2.29-1.55-.92,0-1.71-.66-2.68-.37A18.38,18.38,0,0,1,483.47,354.08Zm81.8,1.3c-.7-.1-1.09,0-1.25-.2-2.2-2.21-4.67-1.7-7.07-.57a28.94,28.94,0,0,0-5.45,3.22,18.37,18.37,0,0,0-2.8,3.57c0,.77.09,1.65.15,2.77A49.54,49.54,0,0,0,565.27,355.38Z" vector-effect="non-scaling-stroke" style="fill: rgb(255, 255, 255);"/><path d="M675.8,351.43c-1,1.58-2.07,3.12-3.06,4.63v3.81l1.22.63a14.57,14.57,0,0,0,6.63-2.33A65,65,0,0,0,686.5,354h1.65a3.83,3.83,0,0,1-1,3.86,4.62,4.62,0,0,0-1.26,4c1.82.82,3.74,1.45,5.79.22,3.89-.23,7.11-2.36,10.57-3.81a5.92,5.92,0,0,0,2-1.27,42,42,0,0,1,5.18-4c2-1.43,4.18-1.56,6.31-2.08,1-.25,2.26.42,3.66.73l3.13,2.72,3.57-2.24,1.38,1.37c-.05.13-.09.27-.14.42-.38,1.06-1.33,1.54-2.08,2.26a9.62,9.62,0,0,0-2.05,4.2c.23.25.49.55.83.94h1.94c6.71-1.93,11.7-5.89,17.35-8.6.23-.11.59,0,.87,0l.66,1.55c0-.08,0,.09-.06.2-1.08,1.7-3,2.3-4.57,3.27a57.6,57.6,0,0,1-12.15,6,11.68,11.68,0,0,1-1.8.18c-.47.07-.92.22-1.59.39l-3.2-1.15c-.32-1.08-.69-2.36-1.11-3.82a60.89,60.89,0,0,1-8.3,4.91c-1.73.91-3.61,1.32-5.38,2a4.5,4.5,0,0,1-4.62-.93c-.22-.78-.55-2-.9-3.29-2.51.48-4.78,1.8-7.23,2.59-1.25.4-2.65,0-3.69.81-1.39,1.07-2.44-.33-3.67-.31h-1c-1.52-1.31-3-2.66-3-5.23-3.21,2-6.38,3.45-9.43,3.4-4.22-1-3.53-4.06-3.59-7.2a12.41,12.41,0,0,1-1.42,1.39,10.66,10.66,0,0,1-1.71.74c-2.08-.51-4.12.91-6.31,1.71a62.73,62.73,0,0,1-8.52,2.76,25.69,25.69,0,0,0-5,1.5c-1.22.55-2.72-.36-3.67.93-2.74-.18-5.38,1.13-8.14.61-1.33-.25-2.64-.64-4-1-1.59-.43-2.33-1.72-3-3.3.25-1.4-.64-3.2.79-4.59-1.13-.93-1.85-.15-3.07.38l-.87-1.23c.08-.3.07-.61.19-.66,2.45-1.15,4.64-2.77,7-4.09,1.45-.81,2.31-2.69,3.43-4.1a20.6,20.6,0,0,1,1.48-1.87c2.81-2.85,5.66-5.67,8.8-8.82H636c-2.07,0-4.16-.1-6.22,0s-4,.52-6.1.82v-2.53c3-1.07,6.09-.36,9-.9,5.33-1,10.65-.16,15.88-.61,5-3.15,9.15-7.5,14.6-10,1.78-1.86,4.21-2.34,6.69-3.2l1.62,2.21a9,9,0,0,1-2.19,4.23c-2.19,2.15-4.34,4.33-6.58,6.57a54.09,54.09,0,0,0,10.12.91,14.91,14.91,0,0,1,4.05.7c.4.1.69.67,1.32,1.33l-1.64.75c-2.79.6-5.73-.62-8.81-.39s-6,.05-9.06.05c-1.64,1.24-3.36,2.43-4.94,3.77a145.77,145.77,0,0,1-12.19,9c-1.82,1.24-3.87,2.18-5.79,3.3a6.58,6.58,0,0,0-3,3.08c-.46,1.06-1.29,2-1.67,3.05a7.79,7.79,0,0,0,0,2.52c.38.28.77.59,1.19.86s.68.36,1.19.62a17.46,17.46,0,0,1,2.59,0c2.68.37,5.25-.42,7.84-.73a40.77,40.77,0,0,0,7-1.94c2.39-.74,4.76-1.53,7.12-2.35a112.79,112.79,0,0,0,11.53-4.5,25.5,25.5,0,0,0,3.68-2.4C674.4,349.87,674.54,349.87,675.8,351.43Zm37.05,2.6c-.78.78-1.45,1.88-2.42,2.34-2.36,1.1-4.06,2.91-5.84,4.68v2.7c3.14.37,12.79-5.17,16-8.16a10.74,10.74,0,0,0-2.09-1.58c-.78-.33-1.85.29-2.51-.67C715.17,354.48,713.9,353.67,712.85,354Zm-45-29.6-.43-.49a98.56,98.56,0,0,0-14.77,9.37h5.79ZM640.57,346c4.95-3,9.57-6.33,14.51-10h-4.5Z" vector-effect="non-scaling-stroke" style="fill: rgb(255, 255, 255);"/><path d="M336.53,359.4l-2-1.06a23.62,23.62,0,0,1,2.52-2c2.42-1.23,4.63-2.85,6.95-4.28.89-.55,1.84-1,3-1.61l1.46,2.27A16,16,0,0,0,342,361.3l.83.41c2.23.63,4.45-.18,6.7-.9a58.86,58.86,0,0,0,11.94-5,35.4,35.4,0,0,1,3.28-1.86,27.45,27.45,0,0,0,3-1.81,4.53,4.53,0,0,0,2.19-2.21,1.47,1.47,0,0,1,2.26-.76c1.41,1.35.47,3.55,1,5.51a73.3,73.3,0,0,0,8.15-3.95,8.1,8.1,0,0,1,4.87-1.15l2.22,1.29c.6,2.05-.62,3.7-1.19,5.38s-1.14,3.46-1.88,5.54l1.29.5-.25.61c2.29-.51,4.77-.6,6.82-1.6,3.2-1.57,6.69-2.43,9.76-4.25l6.74-4c.33-.19.7-.31,1.2-.54l1.42,1.15c-.13.31-.16.67-.36.83a19.86,19.86,0,0,1-3,2.41,84.92,84.92,0,0,1-10.51,5.42c-3.12,1.2-6.23,2.76-9.72,2.85a2.34,2.34,0,0,0-.79.33c-1.4.69-2.7.24-4.18-.59-1.33-1.71-1-4.07-.67-6.16s1.51-3.88,2.32-5.81l-.81-.81c-.22.17-.47.52-.74.54a13.56,13.56,0,0,0-5.43,1.94c-2.55,1.4-4.93,3.14-7.38,4.72a9.66,9.66,0,0,0-1.7,1.13c-.47.47-.67,1.21-1.15,1.68-.9.88-1.93,1.65-2.78,2.37l-1.75-.9v-1.06c1.72-1.93,3.37-3.74,5-5.6a8.81,8.81,0,0,0,.9-1.81,8.14,8.14,0,0,0-4,1.64,65.42,65.42,0,0,1-8.26,4.1c-3,1.32-6.13,2.25-9.22,3.29a18.48,18.48,0,0,1-5.2.94c-3.34.11-4.93-2.51-3.53-5.53.24-.52.49-1,1-2Z" vector-effect="non-scaling-stroke" style="fill: rgb(255, 255, 255);"/><path d="M347.27,345.34l6.06-6.87,1.78.91c-1.14,3.2-2.68,6-6.37,7.25Z" vector-effect="non-scaling-stroke" style="fill: rgb(255, 255, 255);"/></g></svg>