<svg id="Camada_1" xmlns="http://www.w3.org/2000/svg" viewBox="0 0 43 66"><style>.st0{fill:#e3c762}.st1{display:none}.st2,.st3{display:inline;fill:#e3c762}.st3{fill:#fff}</style><g vector-effect="non-scaling-stroke"><path id="path-1576010526584285" vector-effect="non-scaling-stroke" class="st0" d="M0 26.9C0 12.2 11.9 0 21.5 0S43 12.2 43 26.9 21.5 66 21.5 66 0 41.6 0 26.9zm13.5-6.1c0 3.7 3.6 6.8 8 6.8s8-3 8-6.8-3.6-6.8-8-6.8-8 3-8 6.8z"/></g><path vector-effect="non-scaling-stroke" class="st0" d="M0 26.9C0 12.2 11.9 0 21.5 0S43 12.2 43 26.9 21.5 66 21.5 66 0 41.6 0 26.9zm13.5-6.1c0 3.7 3.6 6.8 8 6.8s8-3 8-6.8-3.6-6.8-8-6.8-8 3-8 6.8z"/><g class="st1"><path vector-effect="non-scaling-stroke" class="st2" d="M733.4 14400.2s21.5-24.4 21.5-39.1c0-14.7-11.9-26.9-21.5-26.9s-21.5 12.2-21.5 26.9 21.5 39.1 21.5 39.1z" transform="translate(-711.889 -14334.222)"/></g><g class="st1"><path vector-effect="non-scaling-stroke" class="st3" d="M8 0c4.4 0 8 3 8 6.8s-3.6 6.8-8 6.8-8-3-8-6.8S3.6 0 8 0z"/></g></svg>