<svg version="1.2" xmlns="http://www.w3.org/2000/svg" xmlns:xlink="http://www.w3.org/1999/xlink" overflow="visible" preserveAspectRatio="none" viewBox="0 0 753.2000122070312 568.9000244140625" xml:space="preserve" y="0px" x="0px" id="Camada_1_1568989932630" width="155" height="116.81757656458056"><g transform="translate(1, 1)"><style type="text/css">
	.st0_1568989932630{fill:#32130B;}
</style><g>
	<g>
		<g>
			<g>
				<path d="M59.7,288.4c6.7,0.2,10.7,0.5,17.5,0.5c7.9,0,9.7-0.3,22.3-0.3c9.2,0,27,2.3,27,22.1      c0,9.5-6.4,17.5-16.4,22c-0.2,0.2-0.2,0.3,0,0.5c13,3.1,23.1,11.1,23.1,25.4c0,13.1-7.5,23.1-20,28.2      c-7.4,3.1-15.7,3.4-23.1,3.4c-7.4,0-21.1-0.8-31.6-0.3c-0.5-0.3-0.5-2.3,0-2.4c3.1-0.3,6.7-0.5,9.7-1.3c3.3-0.8,4.3-2.8,4.6-9.3      c0.3-5.4,0.5-15.9,0.5-38.2c0-25.4,0-33.6-0.3-39.4c-0.3-4.4-1.5-6.1-3.9-6.9c-2.3-0.8-6.7-1.3-9.3-1.5      C59.2,290.6,59.2,288.5,59.7,288.4z M85,292.8c-0.8,0.3-1.3,1.8-1.3,2.8c-0.2,2.1-0.5,23.1-0.5,35.9c0,0.3,0.3,1,0.6,1      c1.3,0.2,3.1,0.3,8.2,0.3c11.1,0,14.3-1,16.4-2.5c5.2-3.6,7.4-9.7,7.4-16.2c0-14.4-7.7-22-24.8-22      C88.1,292.1,85.8,292.4,85,292.8z M122,362.5c0-17.5-12.5-26.2-30.8-26.2c-4.8,0-6.9,0.2-7.4,0.3c-0.3,0.2-0.6,0.3-0.6,0.7      c0,10.2,0,35.7,0.6,42c0.2,1.8,1.3,3.3,2.6,4.3c2.9,2,9.3,2.6,12.8,2.6C115.5,386.1,122,378,122,362.5z" class="st0_1568989932630" vector-effect="non-scaling-stroke"/>
				<path d="M160.7,288.4c2.9,0,11.5,0.5,19,0.5c6.9,0,11.8-0.5,15.7-0.5c0.3,0.5,0.5,2,0.2,2.4c-2.5,0.3-5.2,0.7-6.7,1      c-3.6,1-4.3,3.5-4.6,8.5c-0.3,6.9-0.5,23.3-0.5,37.5c0,15.4,0.2,33.6,0.3,39c0.3,5.1,0.8,7.9,4.9,9c2.3,0.6,5.2,1.1,8.4,1.5      c0.5,0.5,0.2,2.1-0.2,2.4c-3.4,0-9.3-0.5-16.5-0.5c-8,0-11.3,0.5-19.8,0.5c-0.5-0.5-0.3-2.1,0-2.4c2.3-0.2,5.4-0.7,7.4-1.1      c4.1-0.8,4.7-3.3,5.1-7c0.3-3.9,0.5-32.3,0.5-45.9c0-12.3,0-25.1-0.3-32.6c-0.5-3.9-0.3-7.4-4.1-8.3c-1.8-0.5-4.9-1-8.9-1.5      C160,290.5,160.4,288.7,160.7,288.4z" class="st0_1568989932630" vector-effect="non-scaling-stroke"/>
				<path d="M237.4,384.3c4.1,2.9,9.2,4.1,16.4,4.1c10.2,0,18.8-6.2,18.8-19.3c0-11.6-7.9-17.7-22.3-26.6      c-12.3-7.5-22.5-16.1-22.5-29.8c0-16.4,13.3-26.7,30.3-26.7c9.5,0,15.7,1.8,22.3,2.5c-1,5.2-2.1,12.9-2.8,20.6      c-0.3,0.5-2.5,0.5-2.8,0.2c-0.7-11.3-2.5-14.9-6.4-17.2c-3.5-2-7.2-2.8-12.6-2.8c-12.1,0-18.5,8.7-18.7,18.4      c-0.2,9.5,4.7,15.2,11.2,20c6.2,4.4,13.9,8.4,18.7,11.5c7.1,4.7,15.9,11.5,15.9,24.1c0,15.9-12.8,29.2-33.9,29.2      c-8.8,0-18.2-2.6-21.6-4.9c-1.6-2.3-3.3-17.4-3.6-22.1c0.3-0.7,2.3-1,2.6-0.7C229.1,374.6,232.3,381,237.4,384.3z" class="st0_1568989932630" vector-effect="non-scaling-stroke"/>
				<path d="M305.7,288.4c2.1,0,10.5,0.5,17.7,0.5c7.1,0,12.5-0.5,15.9-0.5c0.3,0.3,0.3,2.1,0,2.4      c-3.3,0.7-4.9,0.8-6.9,1.5c-2.8,1-3.6,2.3-3.9,9.2c-0.5,13.4-0.3,43.5,0,52.1c0.8,12.1,2.8,17.7,6.6,22.1      c5.7,7.1,16.1,10.3,25.9,10.3c15.7,0,28.5-6.1,29.5-32.3c0.5-12.5,1-31.6,0.3-49.5c-0.2-10.3-3.1-11.5-7-12.3      c-2.3-0.5-3.6-0.5-6.9-1c-0.3-0.3-0.2-2.1,0.2-2.5c2.3,0,7.7,0.3,17.2,0.3c6.4,0,11.8-0.3,14.3-0.3c0.3,0.3,0.3,2.1,0,2.5      c-2.5,0.3-4.4,0.7-6.1,1.1c-4.1,1.1-5.2,3.6-5.4,13.3c-0.8,43.4-0.7,48.7-2.8,59.4c-4.3,21.6-21.5,27.5-37.6,27.5      c-22.9,0-35.7-10-38-29.8c-1.2-9.7-0.7-53-1-61.3c-0.2-4.3-0.2-7.5-3.8-8.8c-1.8-0.7-6.1-1.1-8.2-1.5      C305.3,290.5,305.4,288.7,305.7,288.4z" class="st0_1568989932630" vector-effect="non-scaling-stroke"/>
				<path d="M497.9,389.8c-4.8,0-14.1-0.5-19.7-0.5c-9,0-17.5,0.5-22.3,0.5c-0.5-0.6-0.5-2,0-2.4      c5.3-0.5,8.8-1,10.8-1.5c5.1-0.8,5.6-4.4,5.9-11.8c0.2-4.7,0.3-53.1,0.3-79.7c0-0.7-0.7-1.2-1-1.2c-3.1-0.2-21-0.2-24.4,0.2      c-2.4,0-4.4,1.5-5.9,3.9c-2.1,3.1-4.3,9.2-6.1,14.4c-0.3,0.3-2.5,0-2.6-0.5c1.1-6.7,2.6-18.2,2.9-24.8c0,0,0.5-0.3,0.8-0.2      c2.4,1.3,8.2,2.5,12.3,2.5h60.8c5.6,0,8.8-0.2,13.9-2c0.2,0,0.7,0.2,0.7,0.3c-1.5,4.8-2.6,15.7-3.3,23.9c-0.2,0.7-2.6,0.5-2.8,0      c-0.3-3.9-1-9.7-2.3-12.9c-1.1-2.9-2.9-4.4-6.2-4.6c-6.6-0.5-21.5-0.3-25.6-0.2c-0.5,0.2-0.8,1-0.8,1.5c0,23.4,0.3,71.3,0.7,79      c0.5,10.3,2.5,11.1,6.1,12.1c2.3,0.7,4.6,1,8,1.3C498.5,387.9,498.3,389.7,497.9,389.8z" class="st0_1568989932630" vector-effect="non-scaling-stroke"/>
				<path d="M612.3,389.8c-4.7,0-14.1-0.5-19.7-0.5c-9,0-17.5,0.5-22.3,0.5c-0.5-0.6-0.5-2,0-2.4      c5.2-0.5,8.8-1,10.8-1.5c5.1-0.8,5.6-4.4,5.9-11.8c0.2-4.7,0.3-53.1,0.3-79.7c0-0.7-0.7-1.2-1-1.2c-3.1-0.2-21-0.2-24.4,0.2      c-2.4,0-4.4,1.5-5.9,3.9c-2.1,3.1-4.3,9.2-6.1,14.4c-0.3,0.3-2.5,0-2.6-0.5c1.1-6.7,2.6-18.2,3-24.8c0,0,0.5-0.3,0.8-0.2      c2.4,1.3,8.2,2.5,12.3,2.5h60.8c5.6,0,8.9-0.2,13.9-2c0.2,0,0.7,0.2,0.7,0.3c-1.5,4.8-2.6,15.7-3.3,23.9c-0.2,0.7-2.6,0.5-2.8,0      c-0.3-3.9-1-9.7-2.3-12.9c-1.2-2.9-3-4.4-6.2-4.6c-6.6-0.5-21.5-0.3-25.6-0.2c-0.5,0.2-0.8,1-0.8,1.5c0,23.4,0.3,71.3,0.7,79      c0.5,10.3,2.4,11.1,6.1,12.1c2.3,0.7,4.6,1,8,1.3C612.9,387.9,612.8,389.7,612.3,389.8z" class="st0_1568989932630" vector-effect="non-scaling-stroke"/>
				<path d="M663.6,288.4c2.9,0,11.5,0.5,19,0.5c6.9,0,11.8-0.5,15.7-0.5c0.3,0.5,0.5,2,0.2,2.4c-2.5,0.3-5.2,0.7-6.7,1      c-3.6,1-4.3,3.5-4.6,8.5c-0.3,6.9-0.5,23.3-0.5,37.5c0,15.4,0.2,33.6,0.3,39c0.3,5.1,0.8,7.9,4.9,9c2.3,0.6,5.2,1.1,8.3,1.5      c0.5,0.5,0.2,2.1-0.2,2.4c-3.4,0-9.3-0.5-16.5-0.5c-8.1,0-11.3,0.5-19.8,0.5c-0.5-0.5-0.3-2.1,0-2.4c2.3-0.2,5.4-0.7,7.4-1.1      c4.1-0.8,4.7-3.3,5.1-7c0.3-3.9,0.5-32.3,0.5-45.9c0-12.3,0-25.1-0.3-32.6c-0.5-3.9-0.3-7.4-4.1-8.3c-1.8-0.5-4.9-1-8.8-1.5      C662.9,290.5,663.2,288.7,663.6,288.4z" class="st0_1568989932630" vector-effect="non-scaling-stroke"/>
			</g>
		</g>
		<g>
			<g>
				<path d="M280.3,221.1v17.7c-2.7,1.2-5.4,2.1-7.8,2.7c-2.5,0.6-4.8,0.9-7.1,0.9c-2.5,0-4.9-0.3-7.1-0.9      c-2.2-0.6-4.2-1.5-6.1-2.8c-3.1-2-5.5-4.6-7.3-7.8c-1.7-3.2-2.6-6.6-2.6-10.4c0-2.8,0.6-5.5,1.7-8.2c1.1-2.6,2.8-5,4.9-6.9      c2.2-2.1,4.7-3.7,7.5-4.8c2.8-1,5.9-1.6,9.3-1.6c2.3,0,4.7,0.3,7,0.8c2.3,0.6,4.7,1.4,7.2,2.5v6.5c-2.7-1.4-5.2-2.5-7.5-3.2      c-2.3-0.7-4.6-1-6.8-1c-4.9,0-8.9,1.5-12.1,4.6c-3.2,3-4.8,6.9-4.8,11.4c0,4.5,1.6,8.3,4.7,11.4c3.1,3,7.1,4.6,11.9,4.6      c1.4,0,2.9-0.2,4.3-0.5c1.4-0.3,2.9-0.8,4.5-1.4v-8.1h-7.9v-5.6H280.3z" class="st0_1568989932630" vector-effect="non-scaling-stroke"/>
				<path d="M306.3,241.7v-41.9h12.3c4.2,0,7.5,1,9.8,3c2.3,2,3.4,4.8,3.4,8.5c0,2.8-0.6,5-1.9,6.6      c-1.3,1.7-3.2,2.9-6,3.8c0.7,0.4,1.4,0.9,2,1.5c0.6,0.6,1.4,1.7,2.4,3.2l10.2,15.3h-7.2l-7.2-11c-2.2-3.3-3.9-5.4-5.2-6.3      c-1.3-0.9-2.9-1.4-4.7-1.4h-1.8v18.7H306.3z M312.3,217.9h5c2.8,0,4.9-0.5,6.3-1.6c1.4-1.1,2.1-2.7,2.1-4.9c0-2.3-0.7-3.9-2-5      c-1.3-1-3.4-1.5-6.4-1.5h-5V217.9z" class="st0_1568989932630" vector-effect="non-scaling-stroke"/>
				<path d="M359.2,199.8h6v24c0,2.7,0.1,4.6,0.4,5.7c0.3,1.1,0.8,2.1,1.5,2.9c1.2,1.5,2.7,2.6,4.4,3.3      c1.7,0.7,3.6,1.1,5.8,1.1c3.6,0,6.5-0.9,8.8-2.8c2.2-1.9,3.3-4.3,3.3-7.4v-26.7h6v26.9c0,4.7-1.7,8.5-5,11.4      c-3.3,2.9-7.7,4.4-13.1,4.4c-3.2,0-6-0.6-8.6-1.7c-2.6-1.1-4.7-2.8-6.5-5c-1.1-1.3-1.8-2.7-2.3-4.3c-0.4-1.6-0.7-4.1-0.7-7.4      V199.8z" class="st0_1568989932630" vector-effect="non-scaling-stroke"/>
				<path d="M422.4,241.7v-41.9h13.1c4.4,0,7.8,1.1,10.2,3.2c2.5,2.1,3.7,5.1,3.7,8.8c0,3.7-1.2,6.6-3.7,8.7      c-2.4,2.1-5.9,3.1-10.2,3.1h-7.1v18H422.4z M428.3,218.3h6.5c2.9,0,5-0.5,6.3-1.6c1.3-1,2-2.7,2-5c0-2.3-0.7-4-2-5      c-1.3-1-3.4-1.6-6.3-1.6h-6.5V218.3z" class="st0_1568989932630" vector-effect="non-scaling-stroke"/>
				<path d="M471.7,220.6c0-2.8,0.6-5.5,1.7-8.1c1.1-2.6,2.7-5,4.9-7c2.1-2.1,4.6-3.6,7.2-4.7c2.7-1.1,5.5-1.6,8.5-1.6      c3,0,5.9,0.5,8.6,1.6c2.7,1.1,5.1,2.6,7.2,4.7c2.2,2.1,3.8,4.5,4.9,7.1c1.1,2.6,1.7,5.4,1.7,8.4c0,2.9-0.6,5.6-1.7,8.2      c-1.1,2.6-2.7,4.9-4.8,6.9c-2.2,2.1-4.6,3.6-7.3,4.7c-2.7,1.1-5.6,1.6-8.6,1.6c-3,0-5.8-0.5-8.5-1.7c-2.7-1.1-5.1-2.7-7.2-4.7      c-2.2-2.1-3.8-4.5-4.9-7.1C472.3,226.4,471.7,223.6,471.7,220.6z M478.1,220.8c0,2.1,0.4,4.2,1.2,6.1c0.8,1.9,1.9,3.7,3.4,5.1      c1.5,1.5,3.2,2.7,5.1,3.5c2,0.8,4,1.2,6.1,1.2c2.2,0,4.3-0.4,6.2-1.2c1.9-0.8,3.6-1.9,5.2-3.5c1.5-1.5,2.6-3.2,3.5-5.1      c0.8-1.9,1.2-4,1.2-6.1c0-2.1-0.4-4.2-1.2-6.1c-0.8-1.9-2-3.6-3.5-5.2c-1.5-1.5-3.2-2.7-5.1-3.5c-1.9-0.8-4-1.2-6.1-1.2      c-2.1,0-4.1,0.4-6,1.2c-1.9,0.8-3.7,2-5.2,3.5c-1.5,1.5-2.7,3.2-3.4,5.1C478.5,216.6,478.1,218.6,478.1,220.8z" class="st0_1568989932630" vector-effect="non-scaling-stroke"/>
			</g>
		</g>
	</g>
</g></g></svg>