<svg version="1.2" xmlns="http://www.w3.org/2000/svg" overflow="visible" preserveAspectRatio="none" viewBox="0 0 753.2000122070312 568.9000244140625" id="Camada_1_1568989932630" width="155" height="116.818"><g transform="translate(1 1)"><style>.st0_1568989932630{fill:#32130b}</style><path d="M59.7 288.4c6.7.2 10.7.5 17.5.5 7.9 0 9.7-.3 22.3-.3 9.2 0 27 2.3 27 22.1 0 9.5-6.4 17.5-16.4 22-.2.2-.2.3 0 .5 13 3.1 23.1 11.1 23.1 25.4 0 13.1-7.5 23.1-20 28.2-7.4 3.1-15.7 3.4-23.1 3.4-7.4 0-21.1-.8-31.6-.3-.5-.3-.5-2.3 0-2.4 3.1-.3 6.7-.5 9.7-1.3 3.3-.8 4.3-2.8 4.6-9.3.3-5.4.5-15.9.5-38.2 0-25.4 0-33.6-.3-39.4-.3-4.4-1.5-6.1-3.9-6.9-2.3-.8-6.7-1.3-9.3-1.5-.6-.3-.6-2.4-.1-2.5zm25.3 4.4c-.8.3-1.3 1.8-1.3 2.8-.2 2.1-.5 23.1-.5 35.9 0 .3.3 1 .6 1 1.3.2 3.1.3 8.2.3 11.1 0 14.3-1 16.4-2.5 5.2-3.6 7.4-9.7 7.4-16.2 0-14.4-7.7-22-24.8-22-2.9 0-5.2.3-6 .7zm37 69.7c0-17.5-12.5-26.2-30.8-26.2-4.8 0-6.9.2-7.4.3-.3.2-.6.3-.6.7 0 10.2 0 35.7.6 42 .2 1.8 1.3 3.3 2.6 4.3 2.9 2 9.3 2.6 12.8 2.6 16.3-.1 22.8-8.2 22.8-23.7zm38.7-74.1c2.9 0 11.5.5 19 .5 6.9 0 11.8-.5 15.7-.5.3.5.5 2 .2 2.4-2.5.3-5.2.7-6.7 1-3.6 1-4.3 3.5-4.6 8.5-.3 6.9-.5 23.3-.5 37.5 0 15.4.2 33.6.3 39 .3 5.1.8 7.9 4.9 9 2.3.6 5.2 1.1 8.4 1.5.5.5.2 2.1-.2 2.4-3.4 0-9.3-.5-16.5-.5-8 0-11.3.5-19.8.5-.5-.5-.3-2.1 0-2.4 2.3-.2 5.4-.7 7.4-1.1 4.1-.8 4.7-3.3 5.1-7 .3-3.9.5-32.3.5-45.9 0-12.3 0-25.1-.3-32.6-.5-3.9-.3-7.4-4.1-8.3-1.8-.5-4.9-1-8.9-1.5-.6-.4-.2-2.2.1-2.5zm76.7 95.9c4.1 2.9 9.2 4.1 16.4 4.1 10.2 0 18.8-6.2 18.8-19.3 0-11.6-7.9-17.7-22.3-26.6-12.3-7.5-22.5-16.1-22.5-29.8 0-16.4 13.3-26.7 30.3-26.7 9.5 0 15.7 1.8 22.3 2.5-1 5.2-2.1 12.9-2.8 20.6-.3.5-2.5.5-2.8.2-.7-11.3-2.5-14.9-6.4-17.2-3.5-2-7.2-2.8-12.6-2.8-12.1 0-18.5 8.7-18.7 18.4-.2 9.5 4.7 15.2 11.2 20 6.2 4.4 13.9 8.4 18.7 11.5 7.1 4.7 15.9 11.5 15.9 24.1 0 15.9-12.8 29.2-33.9 29.2-8.8 0-18.2-2.6-21.6-4.9-1.6-2.3-3.3-17.4-3.6-22.1.3-.7 2.3-1 2.6-.7 2.7 9.8 5.9 16.2 11 19.5zm68.3-95.9c2.1 0 10.5.5 17.7.5 7.1 0 12.5-.5 15.9-.5.3.3.3 2.1 0 2.4-3.3.7-4.9.8-6.9 1.5-2.8 1-3.6 2.3-3.9 9.2-.5 13.4-.3 43.5 0 52.1.8 12.1 2.8 17.7 6.6 22.1 5.7 7.1 16.1 10.3 25.9 10.3 15.7 0 28.5-6.1 29.5-32.3.5-12.5 1-31.6.3-49.5-.2-10.3-3.1-11.5-7-12.3-2.3-.5-3.6-.5-6.9-1-.3-.3-.2-2.1.2-2.5 2.3 0 7.7.3 17.2.3 6.4 0 11.8-.3 14.3-.3.3.3.3 2.1 0 2.5-2.5.3-4.4.7-6.1 1.1-4.1 1.1-5.2 3.6-5.4 13.3-.8 43.4-.7 48.7-2.8 59.4-4.3 21.6-21.5 27.5-37.6 27.5-22.9 0-35.7-10-38-29.8-1.2-9.7-.7-53-1-61.3-.2-4.3-.2-7.5-3.8-8.8-1.8-.7-6.1-1.1-8.2-1.5-.4-.3-.3-2.1 0-2.4zm192.2 101.4c-4.8 0-14.1-.5-19.7-.5-9 0-17.5.5-22.3.5-.5-.6-.5-2 0-2.4 5.3-.5 8.8-1 10.8-1.5 5.1-.8 5.6-4.4 5.9-11.8.2-4.7.3-53.1.3-79.7 0-.7-.7-1.2-1-1.2-3.1-.2-21-.2-24.4.2-2.4 0-4.4 1.5-5.9 3.9-2.1 3.1-4.3 9.2-6.1 14.4-.3.3-2.5 0-2.6-.5 1.1-6.7 2.6-18.2 2.9-24.8 0 0 .5-.3.8-.2 2.4 1.3 8.2 2.5 12.3 2.5h60.8c5.6 0 8.8-.2 13.9-2 .2 0 .7.2.7.3-1.5 4.8-2.6 15.7-3.3 23.9-.2.7-2.6.5-2.8 0-.3-3.9-1-9.7-2.3-12.9-1.1-2.9-2.9-4.4-6.2-4.6-6.6-.5-21.5-.3-25.6-.2-.5.2-.8 1-.8 1.5 0 23.4.3 71.3.7 79 .5 10.3 2.5 11.1 6.1 12.1 2.3.7 4.6 1 8 1.3.4.8.2 2.6-.2 2.7zm114.4 0c-4.7 0-14.1-.5-19.7-.5-9 0-17.5.5-22.3.5-.5-.6-.5-2 0-2.4 5.2-.5 8.8-1 10.8-1.5 5.1-.8 5.6-4.4 5.9-11.8.2-4.7.3-53.1.3-79.7 0-.7-.7-1.2-1-1.2-3.1-.2-21-.2-24.4.2-2.4 0-4.4 1.5-5.9 3.9-2.1 3.1-4.3 9.2-6.1 14.4-.3.3-2.5 0-2.6-.5 1.1-6.7 2.6-18.2 3-24.8 0 0 .5-.3.8-.2 2.4 1.3 8.2 2.5 12.3 2.5h60.8c5.6 0 8.9-.2 13.9-2 .2 0 .7.2.7.3-1.5 4.8-2.6 15.7-3.3 23.9-.2.7-2.6.5-2.8 0-.3-3.9-1-9.7-2.3-12.9-1.2-2.9-3-4.4-6.2-4.6-6.6-.5-21.5-.3-25.6-.2-.5.2-.8 1-.8 1.5 0 23.4.3 71.3.7 79 .5 10.3 2.4 11.1 6.1 12.1 2.3.7 4.6 1 8 1.3.3.8.2 2.6-.3 2.7zm51.3-101.4c2.9 0 11.5.5 19 .5 6.9 0 11.8-.5 15.7-.5.3.5.5 2 .2 2.4-2.5.3-5.2.7-6.7 1-3.6 1-4.3 3.5-4.6 8.5-.3 6.9-.5 23.3-.5 37.5 0 15.4.2 33.6.3 39 .3 5.1.8 7.9 4.9 9 2.3.6 5.2 1.1 8.3 1.5.5.5.2 2.1-.2 2.4-3.4 0-9.3-.5-16.5-.5-8.1 0-11.3.5-19.8.5-.5-.5-.3-2.1 0-2.4 2.3-.2 5.4-.7 7.4-1.1 4.1-.8 4.7-3.3 5.1-7 .3-3.9.5-32.3.5-45.9 0-12.3 0-25.1-.3-32.6-.5-3.9-.3-7.4-4.1-8.3-1.8-.5-4.9-1-8.8-1.5-.6-.4-.3-2.2.1-2.5zm-383.3-67.3v17.7c-2.7 1.2-5.4 2.1-7.8 2.7-2.5.6-4.8.9-7.1.9-2.5 0-4.9-.3-7.1-.9-2.2-.6-4.2-1.5-6.1-2.8-3.1-2-5.5-4.6-7.3-7.8-1.7-3.2-2.6-6.6-2.6-10.4 0-2.8.6-5.5 1.7-8.2 1.1-2.6 2.8-5 4.9-6.9 2.2-2.1 4.7-3.7 7.5-4.8 2.8-1 5.9-1.6 9.3-1.6 2.3 0 4.7.3 7 .8 2.3.6 4.7 1.4 7.2 2.5v6.5c-2.7-1.4-5.2-2.5-7.5-3.2-2.3-.7-4.6-1-6.8-1-4.9 0-8.9 1.5-12.1 4.6-3.2 3-4.8 6.9-4.8 11.4s1.6 8.3 4.7 11.4c3.1 3 7.1 4.6 11.9 4.6 1.4 0 2.9-.2 4.3-.5s2.9-.8 4.5-1.4v-8.1h-7.9V221h14.1zm26 20.6v-41.9h12.3c4.2 0 7.5 1 9.8 3 2.3 2 3.4 4.8 3.4 8.5 0 2.8-.6 5-1.9 6.6-1.3 1.7-3.2 2.9-6 3.8.7.4 1.4.9 2 1.5.6.6 1.4 1.7 2.4 3.2l10.2 15.3h-7.2l-7.2-11c-2.2-3.3-3.9-5.4-5.2-6.3-1.3-.9-2.9-1.4-4.7-1.4h-1.8v18.7h-6.1zm6-23.8h5c2.8 0 4.9-.5 6.3-1.6 1.4-1.1 2.1-2.7 2.1-4.9 0-2.3-.7-3.9-2-5-1.3-1-3.4-1.5-6.4-1.5h-5v13zm46.9-18.1h6v24c0 2.7.1 4.6.4 5.7.3 1.1.8 2.1 1.5 2.9 1.2 1.5 2.7 2.6 4.4 3.3 1.7.7 3.6 1.1 5.8 1.1 3.6 0 6.5-.9 8.8-2.8 2.2-1.9 3.3-4.3 3.3-7.4v-26.7h6v26.9c0 4.7-1.7 8.5-5 11.4-3.3 2.9-7.7 4.4-13.1 4.4-3.2 0-6-.6-8.6-1.7-2.6-1.1-4.7-2.8-6.5-5-1.1-1.3-1.8-2.7-2.3-4.3-.4-1.6-.7-4.1-.7-7.4v-24.4zm63.2 41.9v-41.9h13.1c4.4 0 7.8 1.1 10.2 3.2 2.5 2.1 3.7 5.1 3.7 8.8 0 3.7-1.2 6.6-3.7 8.7-2.4 2.1-5.9 3.1-10.2 3.1h-7.1v18h-6zm5.9-23.4h6.5c2.9 0 5-.5 6.3-1.6 1.3-1 2-2.7 2-5s-.7-4-2-5-3.4-1.6-6.3-1.6h-6.5v13.2zm43.4 2.3c0-2.8.6-5.5 1.7-8.1 1.1-2.6 2.7-5 4.9-7 2.1-2.1 4.6-3.6 7.2-4.7 2.7-1.1 5.5-1.6 8.5-1.6s5.9.5 8.6 1.6c2.7 1.1 5.1 2.6 7.2 4.7 2.2 2.1 3.8 4.5 4.9 7.1 1.1 2.6 1.7 5.4 1.7 8.4 0 2.9-.6 5.6-1.7 8.2-1.1 2.6-2.7 4.9-4.8 6.9-2.2 2.1-4.6 3.6-7.3 4.7s-5.6 1.6-8.6 1.6-5.8-.5-8.5-1.7c-2.7-1.1-5.1-2.7-7.2-4.7-2.2-2.1-3.8-4.5-4.9-7.1-1.1-2.5-1.7-5.3-1.7-8.3zm6.4.2c0 2.1.4 4.2 1.2 6.1.8 1.9 1.9 3.7 3.4 5.1 1.5 1.5 3.2 2.7 5.1 3.5 2 .8 4 1.2 6.1 1.2 2.2 0 4.3-.4 6.2-1.2 1.9-.8 3.6-1.9 5.2-3.5 1.5-1.5 2.6-3.2 3.5-5.1.8-1.9 1.2-4 1.2-6.1 0-2.1-.4-4.2-1.2-6.1-.8-1.9-2-3.6-3.5-5.2-1.5-1.5-3.2-2.7-5.1-3.5-1.9-.8-4-1.2-6.1-1.2-2.1 0-4.1.4-6 1.2-1.9.8-3.7 2-5.2 3.5s-2.7 3.2-3.4 5.1c-1 2-1.4 4-1.4 6.2z" class="st0_1568989932630" vector-effect="non-scaling-stroke"/></g></svg>